<svg width="253" height="256" viewBox="0 0 253 256" fill="none" xmlns="http://www.w3.org/2000/svg">
<path d="M0.00816367 29.7087C0.00816367 31.4287 -0.0184943 33.15 0.010839 34.8687C0.646839 71.202 1.17484 107.535 2.02951 143.863C2.19617 150.963 3.71883 157.914 7.4095 164.349C11.2628 171.07 16.8108 176.207 22.1722 181.489C37.0375 196.138 52.0322 210.662 67.2228 224.973C75.1775 232.469 83.5922 239.482 91.9135 246.579C96.4655 250.462 102.04 252.766 107.721 253.961C113.137 255.098 118.86 254.974 124.452 255.047C146.767 255.339 169.08 255.537 191.396 255.682C204.94 255.769 218.485 255.698 232.701 255.698C231.092 254.131 229.644 252.774 228.252 251.358C220.384 243.362 212.507 235.375 204.676 227.342C195.919 218.359 187.221 209.317 178.464 200.335C176.839 198.667 176.127 196.878 176.109 194.461C175.899 166.493 175.568 138.525 175.257 110.555C175.247 109.634 175.111 108.714 174.974 107.086C173.751 108.17 173.037 108.774 172.355 109.411C158.061 122.794 143.763 136.175 129.488 149.581C128.334 150.663 127.281 150.93 126.049 149.787C125.241 149.038 124.364 148.362 123.579 147.593C111.395 135.645 99.2295 123.679 87.0388 111.739C84.4948 109.247 81.8668 106.841 79.2775 104.395L78.2828 104.842C78.2895 138.541 79.7082 172.234 79.7522 205.995C78.6975 205.627 78.0615 205.223 77.5308 204.71C73.8148 201.11 70.0922 197.517 66.4255 193.866C58.6202 186.094 50.8202 178.318 43.1082 170.458C42.2815 169.613 41.6535 168.202 41.6108 167.029C41.3802 160.765 41.3615 154.497 41.2748 148.229C40.9162 122.029 40.5308 95.8286 40.2522 69.626C40.2295 67.4486 39.5948 65.906 38.0415 64.438C26.9282 53.9247 15.8722 43.3487 4.79084 32.7993C3.49484 31.566 2.15217 30.3806 0.830836 29.1753C0.55617 29.3526 0.28283 29.53 0.00816367 29.7087Z" fill="url(#paint0_linear_427_1031)"/>
<path d="M139.107 0.175306C103.15 0.397973 67.1923 0.304674 31.2337 0.352674C30.427 0.354008 29.6203 0.543327 28.1323 0.729994C60.3283 34.23 93.4523 65.838 126.268 97.57C142.862 81.1913 159.244 65.0206 175.686 48.7913C176.487 49.1486 176.859 49.2073 177.074 49.4233C188.494 60.8806 199.919 72.334 211.27 83.8593C212.038 84.6393 212.539 85.954 212.64 87.0673C212.93 90.2393 213.03 93.4353 213.06 96.6233C213.331 124.702 213.586 152.782 213.791 180.861C213.807 183.03 214.204 184.75 216.388 185.705C217.076 186.003 217.683 186.553 218.234 187.086C227.299 195.846 236.331 204.639 245.414 213.381C247.64 215.521 250.019 217.502 252.694 219.883C252.694 218.345 252.703 216.965 252.692 215.585C252.524 194.219 252.4 172.854 252.167 151.49C251.994 135.645 251.79 119.797 251.378 103.955C251.162 95.658 247.396 88.7367 241.683 82.914C236.523 77.654 231.104 72.6487 225.858 67.4727C207.682 49.5433 189.536 31.5806 171.367 13.642C162.508 4.89665 152.1 0.174004 139.424 0.174004C139.318 0.174004 139.214 0.173973 139.107 0.175306Z" fill="url(#paint1_linear_427_1031)"/>
<path d="M3.00684 198.57C3.53484 217.227 4.06284 235.885 4.60418 254.997C5.93618 255.227 7.27884 255.659 8.62418 255.663C23.6028 255.714 38.5828 255.701 53.5628 255.687C54.4348 255.687 55.3068 255.478 56.1788 255.493C57.6348 255.518 59.0895 255.639 60.5442 255.733C61.1015 255.769 61.6548 255.845 62.2095 255.903C62.3188 255.703 62.4295 255.502 62.5388 255.302C42.9588 236.231 23.3802 217.162 3.80284 198.091C3.53617 198.25 3.27217 198.411 3.00684 198.57Z" fill="url(#paint2_linear_427_1031)"/>
<path d="M194.697 0.327315C194.491 0.683315 194.281 1.0393 194.075 1.39396C212.901 19.9633 231.729 38.53 250.689 57.2313C251.845 53.614 251.497 2.39931 250.451 0.327315H194.697Z" fill="url(#paint3_linear_427_1031)"/>
<defs>
<linearGradient id="paint0_linear_427_1031" x1="-9.96938" y1="244.758" x2="233.146" y2="48.3498" gradientUnits="userSpaceOnUse">
<stop stop-color="#BA9258"/>
<stop offset="0.987437" stop-color="#E4C482"/>
<stop offset="1" stop-color="#E4C482"/>
</linearGradient>
<linearGradient id="paint1_linear_427_1031" x1="-16.3049" y1="236.916" x2="226.81" y2="40.5075" gradientUnits="userSpaceOnUse">
<stop stop-color="#BA9258"/>
<stop offset="0.987437" stop-color="#E4C482"/>
<stop offset="1" stop-color="#E4C482"/>
</linearGradient>
<linearGradient id="paint2_linear_427_1031" x1="-1.71972" y1="254.969" x2="241.395" y2="58.5613" gradientUnits="userSpaceOnUse">
<stop stop-color="#BA9258"/>
<stop offset="0.987437" stop-color="#E4C482"/>
<stop offset="1" stop-color="#E4C482"/>
</linearGradient>
<linearGradient id="paint3_linear_427_1031" x1="-23.6778" y1="227.818" x2="219.437" y2="31.4101" gradientUnits="userSpaceOnUse">
<stop stop-color="#BA9258"/>
<stop offset="0.987437" stop-color="#E4C482"/>
<stop offset="1" stop-color="#E4C482"/>
</linearGradient>
</defs>
</svg>
